<?xml version="1.0" encoding="UTF-8"?>
<svg width="110px" height="57px" viewBox="0 0 110 57" version="1.1" xmlns="http://www.w3.org/2000/svg" xmlns:xlink="http://www.w3.org/1999/xlink">
    <!-- Generator: Sketch 42 (36781) - http://www.bohemiancoding.com/sketch -->
    <title>esl_logo</title>
    <desc>Created with Sketch.</desc>
    <defs></defs>
    <g id="Page-1" stroke="none" stroke-width="1" fill="none" fill-rule="evenodd">
        <g id="esl" fill="#97232E">
            <g id="Page-1">
                <g id="erl_solutions_logo.eps">
                    <path d="M79.358535,41.9437681 C76.6382217,41.9437681 73.5770558,40.6407816 73.5770558,37.1492119 C73.5770558,33.0881084 77.0162582,31.0553876 83.3957789,31.0553876 C88.3988749,31.0553876 90.8096322,31.3950008 93.9135597,31.6035405 C91.0398626,37.5749677 86.3159557,41.9437681 79.358535,41.9437681 Z M94.5611796,19.6764893 C90.897944,19.6764893 95.2404057,6.46194502 99.130773,6.46194502 L99.2135072,6.46194502 C100.284094,6.46194502 100.900727,7.57343426 100.448323,9.4673351 C100.190825,10.5453588 99.5435145,12.8842272 99.2135072,13.9545043 C98.5497743,16.1127207 96.9180201,19.6764893 94.5611796,19.6764893 Z M65.209435,20.1301331 C65.0055432,21.0866894 64.1394679,24.0818539 63.8512925,25.1106089 C63.5624973,26.1399837 61.8746574,29.6393002 59.6510591,29.6393002 C56.0284161,29.6393002 60.0216589,16.7123115 63.9330971,16.7123115 C65.0864182,16.7123115 65.620937,18.1947103 65.209435,20.1301331 Z M21.0817316,40.9410418 C21.0817316,40.9410418 19.7945482,41.2958383 19.2439164,41.2958383 C17.1278417,41.2958383 15.5453561,39.7099442 15.5453561,36.6143832 C15.5453561,34.1506389 17.1284615,32.2610761 19.4778652,32.2610761 C21.5102762,32.2610761 23.0391549,33.6371909 23.0391549,36.3417012 C23.0391549,38.2687577 21.9044256,40.0061762 21.0817316,40.9410418 Z M55.760382,3.86867668 C58.0152767,3.86867668 55.5134189,15.6457527 46.9295116,25.5871829 C48.2882739,16.6952687 53.8457202,3.86867668 55.760382,3.86867668 Z M108.513205,25.1831176 C107.341602,26.9341701 105.363727,29.7096397 98.8738942,29.7096397 C98.7434406,29.7096397 98.6185646,29.7087101 98.4918295,29.7080904 C98.8680067,28.798014 99.190887,27.8932053 99.4555126,27.0107071 C100.076484,24.9377037 100.34111,24.1078826 100.5481,23.3480913 L100.942559,21.9818922 C101.187044,21.0761539 105.63486,4.07442769 105.882443,3.2511138 C106.129096,2.42810978 105.594267,2.34568542 105.346684,2.42810978 C105.099721,2.50991438 104.070346,2.83961178 103.494925,3.08657496 C102.633498,3.45531547 102.317125,3.8039147 102.218897,4.19806422 C102.177375,4.36291292 101.971624,4.85683927 101.724661,5.80347982 C101.42626,5.13571865 100.859825,4.23896652 99.1409986,4.23896652 C95.4746644,4.23896652 90.8158296,10.1258003 89.1676524,18.9644173 C88.7911653,20.6153833 84.3678284,25.0898479 84.3678284,21.5629534 C84.3678284,19.635587 86.6155962,13.474212 86.6155962,11.5254649 C86.6155962,10.2113233 86.1635018,8.7825313 84.2757982,8.7825313 C82.7986671,8.7825313 80.0873399,10.2810432 78.2829903,13.430211 C78.5305733,12.6868426 79.0244996,10.86638 79.0734584,10.6956438 C79.2073204,10.2280561 78.8556227,10.0669258 78.4875018,10.1893228 C78.1215501,10.31141 77.1823463,10.7092779 76.5709809,10.9534523 C75.8375281,11.2472053 75.2974316,11.8105416 74.9810585,12.8798891 C74.7365742,13.705372 72.7992922,21.5781368 72.3410003,23.320823 C71.881779,25.0631994 70.6107088,29.1469232 68.1100903,29.1469232 C67.4311741,29.1469232 66.864739,28.282397 67.4311741,25.750792 C67.576811,25.1003834 70.2732648,14.458966 70.4892413,13.6248069 C70.7052179,12.7912674 70.2112916,12.8225639 69.9646383,12.9149039 C69.717675,13.0075538 68.605876,13.4088303 68.0186799,13.6248069 C67.4324135,13.8414032 66.7841739,14.489333 66.7225106,14.7366059 C66.6605374,14.9835692 66.5372107,15.4465089 66.3828974,15.9717318 C66.1353145,15.2921956 65.6420079,14.5819828 64.0365922,14.5819828 C60.8245217,14.5819828 55.751086,19.7412514 54.0304003,28.8773397 C50.017326,36.5697626 45.0830202,36.1300626 46.5028262,27.9170651 C58.2984942,17.2347455 61.5660309,0.163609234 56.9955077,0.163609234 C51.3565668,0.163609234 39.5193767,24.4313827 42.4838645,34.4552371 C41.8253993,35.2785509 40.6311758,36.8430643 38.4500293,36.8430643 C36.6791451,36.8430643 36.1031043,34.9906855 36.1031043,33.5494988 C36.1031043,27.9102481 39.0508594,25.2531473 39.0508594,23.2771319 C39.0508594,22.6304416 38.6768511,22.1334166 37.9815119,22.1334166 C37.1262819,22.1334166 36.7246955,22.5597923 36.3909699,23.1758058 C35.8555215,24.1636585 34.6498329,26.3237342 32.7683267,25.2339356 C35.2794805,16.9183722 26.6834885,17.471793 30.6767314,26.1991681 C30.1713399,28.5092189 28.2287902,33.158448 25.7151575,36.6893708 L25.5227306,36.9667009 C25.5227306,33.2424217 23.7137332,30.2859905 19.6802078,30.2859905 C15.6228227,30.2859905 12.9939197,33.6300641 12.9939197,36.8588675 C12.9939197,40.2041805 14.7623248,42.6127687 17.8984783,43.1609216 L18.0072414,43.1655696 C16.6571553,43.7701181 15.0328379,44.1404079 13.1318101,44.1404079 C9.35888201,44.1404079 5.94013071,41.1145667 5.94013071,36.0894703 C5.94013071,29.9559832 10.7449125,25.7281718 15.3547886,24.9460701 C21.0770835,27.2511631 22.3878166,22.3760417 16.5074901,22.8464183 C15.6940918,22.6431461 13.8906719,21.6528145 13.8906719,18.9355997 C13.8906719,15.9494214 16.5366175,13.9145316 19.256621,13.9145316 C22.0187662,13.9145316 22.8622215,15.4719179 22.8622215,16.4092625 C22.8622215,17.2124351 22.5749757,17.5632034 22.5749757,18.0884263 C22.5749757,18.5941275 22.6766116,19.1100543 23.5333912,19.1100543 C25.1099891,19.1100543 26.1728294,16.7110719 26.1728294,14.8881305 C26.1728294,11.7851326 23.8094817,9.51567419 20.0015387,9.51567419 C16.6475494,9.51567419 11.2961641,12.561037 11.2961641,18.3090508 C11.2961641,21.2472 12.7649288,22.6945839 13.4887757,23.2864279 C7.41323356,24.4177486 0,29.4874658 0,37.8312269 C0,43.7285962 3.80608376,49.1493915 11.4452096,49.1493915 C24.8249125,49.1493915 29.6805123,33.1649552 31.9453227,27.1724572 C32.6363238,27.8024147 34.3740522,27.8275138 34.8676688,27.4981262 C34.2916278,28.7744642 31.9034908,34.0849473 31.9034908,37.1724519 C31.9034908,39.4028671 32.6394225,41.4126578 35.4440194,41.4126578 C38.8029666,41.4126578 41.8681608,38.3514919 43.3920817,36.4988032 C45.6950056,39.7248178 50.8344426,38.0905848 54.3396465,32.2734708 C56.4349602,37.8129448 61.6639485,33.1203345 63.8035731,29.2054878 C64.166736,30.9816395 65.1694623,31.861349 67.0165734,31.861349 C70.3656047,31.861349 74.4223701,29.0914571 75.8846276,23.9526397 C76.357793,22.2874201 77.2771654,18.2923181 77.5185509,17.4352288 C77.9164189,16.0287471 79.7808824,12.7578019 81.462835,12.7578019 C82.4578145,12.7578019 82.4172222,13.6102432 82.4172222,14.1605651 C82.4172222,15.3619155 80.0873399,22.146431 80.0873399,23.9479918 C80.0873399,29.5153537 86.2453064,27.5393385 89.6265638,21.3491459 C89.9925156,22.8727568 90.4864419,24.2460829 92.6269961,24.2460829 C94.7672404,24.2460829 96.7435655,21.8176632 97.5668795,20.7058641 C97.4165945,21.2425519 96.303246,24.9308866 95.7504451,26.7968995 C95.4678474,27.7506671 95.1468261,28.6842932 94.7901705,29.5918906 C90.7795751,29.3405893 88.8999282,28.7741543 83.2801989,28.7741543 C74.8478161,28.7741543 67.8479438,32.3673601 67.8479438,38.0626967 C67.8479438,42.4894421 72.739488,44.4189775 78.2823706,44.4189775 C88.0254864,44.4189775 94.2559615,38.249546 97.5520059,31.7541355 C97.9297325,31.759713 98.3229524,31.7631215 98.7366234,31.7631215 C106.942184,31.7631215 109.397252,26.4052289 109.850586,25.581915 C110.339555,24.6956984 109.409337,23.8448064 108.513205,25.1831176 L108.513205,25.1831176 Z" id="Fill-1"></path>
                    <path d="M46.0609573,52.0488074 C47.1625308,52.3165316 47.7339237,52.710991 47.7339237,53.5804748 C47.7339237,54.5621302 46.9682449,55.1415797 45.8753476,55.1415797 C45.0793019,55.1415797 44.3297361,54.8673482 43.7050462,54.3095895 L44.2550584,53.6548426 C44.7533229,54.0867958 45.2512775,54.3315899 45.8970382,54.3315899 C46.4622337,54.3315899 46.8188895,54.0713026 46.8188895,53.6690966 C46.8188895,53.2904403 46.611899,53.0905767 45.6441875,52.8677832 C44.5370364,52.5991293 43.9138959,52.2712912 43.9138959,51.3045093 C43.9138959,50.3984613 44.6563348,49.788335 45.6888082,49.788335 C46.4482897,49.788335 47.0500494,50.0194951 47.5771315,50.4446312 L47.088163,51.1353224 C46.619026,50.7851739 46.1508184,50.6001839 45.6748643,50.6001839 C45.1387961,50.6001839 44.8276907,50.872866 44.8276907,51.2236343 C44.8276907,51.633587 45.065048,51.8108303 46.0609573,52.0488074" id="Fill-3"></path>
                    <path d="M52.678455,50.614128 C51.6459815,50.614128 50.9233742,51.4389912 50.9233742,52.45876 C50.9233742,53.4760501 51.6593058,54.3167165 52.6942582,54.3167165 C53.7267317,54.3167165 54.4462405,53.4915433 54.4462405,52.4736336 C54.4462405,51.4544844 53.7115481,50.614128 52.678455,50.614128 Z M52.678455,55.1561433 C51.0789269,55.1561433 49.9658883,53.9454969 49.9658883,52.4736336 C49.9658883,51.000221 51.0947301,49.7743912 52.6942582,49.7743912 C54.2919272,49.7743912 55.4055855,50.9856572 55.4055855,52.45876 C55.4055855,53.9306235 54.2773634,55.1561433 52.678455,55.1561433 L52.678455,55.1561433 Z" id="Fill-4"></path>
                    <polyline id="Fill-5" points="57.8984572 49.8633226 58.8134915 49.8633226 58.8134915 54.2358414 61.5489883 54.2358414 61.5489883 55.0678315 57.8984572 55.0678315 57.8984572 49.8633226"></polyline>
                    <path d="M68.4026038,52.815106 C68.4026038,54.3681542 67.525993,55.1490165 66.164442,55.1490165 C64.8100178,55.1490165 63.9485903,54.3681542 63.9485903,52.8597266 L63.9485903,49.8633226 L64.8639345,49.8633226 L64.8639345,52.8222328 C64.8639345,53.7896344 65.361889,54.3095895 66.1790056,54.3095895 C66.9893052,54.3095895 67.4884992,53.8184519 67.4884992,52.8597266 L67.4884992,49.8633226 L68.4026038,49.8633226 L68.4026038,52.815106" id="Fill-6"></path>
                    <polyline id="Fill-7" points="73.5401818 55.0678315 72.6177108 55.0678315 72.6177108 50.711116 70.9667448 50.711116 70.9667448 49.8633226 75.190528 49.8633226 75.190528 50.711116 73.5401818 50.711116 73.5401818 55.0678315"></polyline>
                    <polygon id="Fill-8" points="77.9477153 55.0678315 78.8621298 55.0678315 78.8621298 49.8633226 77.9477153 49.8633226"></polygon>
                    <path d="M84.1893457,50.614128 C83.1556327,50.614128 82.4348845,51.4389912 82.4348845,52.45876 C82.4348845,53.4760501 83.1701965,54.3167165 84.2045291,54.3167165 C85.2370025,54.3167165 85.9589902,53.4915433 85.9589902,52.4736336 C85.9589902,51.4544844 85.2230586,50.614128 84.1893457,50.614128 Z M84.1893457,55.1561433 C82.5916767,55.1561433 81.4755395,53.9454969 81.4755395,52.4736336 C81.4755395,51.000221 82.6053108,49.7743912 84.2045291,49.7743912 C85.8034375,49.7743912 86.9174056,50.9856572 86.9174056,52.45876 C86.9174056,53.9306235 85.7876343,55.1561433 84.1893457,55.1561433 L84.1893457,55.1561433 Z" id="Fill-9"></path>
                    <polyline id="Fill-10" points="93.0010044 49.8633226 93.9005452 49.8633226 93.9005452 55.0678315 93.1348665 55.0678315 90.264268 51.3646233 90.264268 55.0678315 89.3650369 55.0678315 89.3650369 49.8633226 90.2128303 49.8633226 93.0010044 53.4617961 93.0010044 49.8633226"></polyline>
                    <path d="M98.9975307,52.0488074 C100.099104,52.3165316 100.671427,52.710991 100.671427,53.5804748 C100.671427,54.5621302 99.9060577,55.1415797 98.8128506,55.1415797 C98.0171147,55.1415797 97.2659997,54.8673482 96.6425492,54.3095895 L97.1928712,53.6548426 C97.6902061,54.0867958 98.1884705,54.3315899 98.8357806,54.3315899 C99.4006663,54.3315899 99.7570122,54.0713026 99.7570122,53.6690966 C99.7570122,53.2904403 99.5494019,53.0905767 98.5829301,52.8677832 C97.4748492,52.5991293 96.8501595,52.2712912 96.8501595,51.3045093 C96.8501595,50.3984613 97.5935279,49.788335 98.6272409,49.788335 C99.3861026,49.788335 99.9875524,50.0194951 100.515874,50.4446312 L100.025046,51.1353224 C99.5568387,50.7851739 99.0883213,50.6001839 98.6120573,50.6001839 C98.0769189,50.6001839 97.7645739,50.872866 97.7645739,51.2236343 C97.7645739,51.633587 98.0031708,51.8108303 98.9975307,52.0488074" id="Fill-11"></path>
                </g>
            </g>
        </g>
    </g>
</svg>